<?xml version="1.0" standalone="no"?>
<!DOCTYPE svg PUBLIC "-//W3C//DTD SVG 20010904//EN"
 "http://www.w3.org/TR/2001/REC-SVG-20010904/DTD/svg10.dtd">
<svg version="1.0" xmlns="http://www.w3.org/2000/svg"
 width="400px" height="400px" viewBox="0 0 1024, 600.000000"
 preserveAspectRatio="xMidYMid slice">

<g transform="translate(-500.000000,10.000000) scale(0.18000,-0.10000)"
fill="#000000" stroke="none">
<path d="M5017 144 c-11 -11 -8 -144 3 -144 5 0 10 28 12 63 l3 62 85 0 85 0
3 -62 c2 -35 7 -63 13 -63 6 0 9 29 7 73 l-3 72 -101 3 c-55 1 -103 0 -107 -4z"/>
<path d="M5090 94 c0 -11 6 -13 19 -9 23 7 39 -13 17 -21 -20 -8 -21 -24 -2
-24 21 0 38 27 31 50 -8 25 -65 29 -65 4z"/>
<path d="M5110 20 c0 -5 5 -10 10 -10 6 0 10 5 10 10 0 6 -4 10 -10 10 -5 0
-10 -4 -10 -10z"/>
</g>
</svg>
